'@ 3
'@ 28, 0, 8, 0, 0, 35,2,12,3
'@ 26,10, 0, 6, 2,  0,1, 4,3
'@ 28, 0, 8, 0, 0, 33,2,12,7
'@ 26,10, 0, 6, 2,  0,1, 4,7
'@ 4,7

'@ 5
'@ 21, 4, 2, 4, 2, 40,0,12,3
'@ 24,12, 4, 6, 2,  0,0, 4,7
'@ 21, 4, 2, 4, 2, 35,0, 6,7
'@ 24,12, 4, 6, 2,  0,0, 2,3
'@ 4,7

'@ 11
'@ 30,14, 4, 4, 2, 30,2,0, 4
'@ 24,10, 4, 4, 2, 50,3,2, 3
'@ 28, 4, 4, 4, 2, 25,3,0, 4
'@ 28, 7, 4, 6, 2,  0,3,0, 3
'@ 2,6

'@ 26
'@ 18,12, 1, 4, 3, 35,3,10,4
'@ 31,14, 3, 5, 3, 40,0, 1,4
'@ 31,11, 3, 5, 3, 25,1, 0,0
'@ 31,15, 4, 6, 2,  0,1, 1,3
'@ 0,6

'@ 27
'@ 31,21,12, 4, 6, 10,1,15,7
'@ 31,16, 8, 7, 3,  0,1, 2,7
'@ 31,21,12, 4, 6,  5,1,15,3
'@ 31,16, 8, 7, 3,  0,1, 2,3
'@ 4,7

'@ 28
'@ 18,16,14, 7, 4, 37,0,15,0
'@ 31,16, 6, 8, 0,  0,0, 2,0
'@ 13,12, 6, 8, 3,  0,0, 4,3
'@ 13,12, 6, 8, 3,  0,0, 4,7
'@ 6,7

'@ 29
'@ 31,23, 0,15,15,  0,0,12,0
'@ 31,21, 0,15,15,  0,0, 4,0
'@ 31,21, 0,15,15,  0,0, 4,0
'@ 31,21, 0,15,15,  0,0, 4,0
'@ 5,3


'A T160@5 l8
'A r1Lu116
'A o4a>fef<a>fef
'A <a>fef<a>fef
'A <a>fef<a>fef
'A <a>fef<a>fef
'A <a>fef<a>fef
'A <a>fef<a>fef
'A <a>fef<a>fef
'A <a>fefgfecu120

'A <a>cdr<a>cdr
'A <a>cd<a>fedc
'A <ga>cr<ga>cr
'A <a>cd<a>fedc
'A <a>cdr<a>cdr
'A <a>cd<a>fedc
'A <gafrercr
'A defgara>c
'A d2&d4<a>c
'A d2&d<a>ef
'A e2c4d4
'A <a2&a4a>c
'A d2&d4<a>c
'A d2&d<a>ef
'A e2f4g4
'A a2a16a16g16g16f16f16e16e16u124
'A d+ff+rfd+c+d+&
'A d+2&d+<a+>d+<a+
'A >d+ff+rfd+c+g+&
'A g+2&g+f+fd+
'A d+ff+rfd+c+g+&
'A g+f+ff+fd+c+<a+
'A >d+ff+rfd+c+d+&
'A d+2&d+<a+>d+<a+
'A >d+ff+rfd+c+g+&
'A g+2&g+f+fd+
'A d+ff+rfd+c+g+&
'A g+f+ff+fd+c+<a+
'A >d+ff+rfd+c+d+&
'A d+1

'B @27 l8
'B r1Lu116
'B o4a>fef<a>fef
'B <a>fefgfef
'B <a>fef<a>fef
'B <a>fefgfef
'B <a>fef<a>fef
'B <a>fefgfef
'B <a>fef<a>fef
'B <a>fefgfecu120

'B <a>cdr<a>cdr
'B <a>cd<a>fedc
'B <ga>cr<ga>cr
'B <a>cd<a>fedc
'B <a>cdr<a>cdr
'B <a>cd<a>fedc
'B <gafrercr
'B defgara>c
'B d2&d4<a>c
'B d2&d<a>ef
'B e2c4d4
'B <a2&a4a>c
'B d2&d4<a>c
'B d2&d<a>ef
'B e2f4g4
'B a2a16a16g16g16f16f16e16e16u124
'B d+ff+rfd+c+d+&
'B d+2&d+<a+>d+<a+
'B >d+ff+rfd+c+g+&
'B g+2&g+f+fd+
'B d+ff+rfd+c+g+&
'B g+f+ff+fd+c+<a+
'B >d+ff+rfd+c+d+&
'B d+2&d+<a+>d+<a+
'B >d+ff+rfd+c+g+&
'B g+2&g+f+fd+
'B d+ff+rfd+c+g+&
'B g+f+ff+fd+c+<a+
'B >d+ff+rfd+c+d+&
'B d+1

'C @26 l16
'C r1Lu119
'C o5ddadddadddadddad
'C <a+a+>f<a+a+a+>f<a+>ccgcccgc
'C ddadddadddadddad
'C <a+a+>f<a+a+a+>f<a+>ccgcccgc
'C ddadddadddadddad
'C <a+a+>f<a+a+a+>f<a+>ccgcccgc
'C ddadddadddadddad
'C <a+a+>f<a+a+a+>f<a+>ccgcccgcu123

'C ddaaddaaddaa>dd<aa
'C <a+a+>f<a+a+a+>f<a+a+a+>f<a+a+a+>f<a+
'C >ccgcccgcccgcccgc
'C ddadddadddadddad
'C ddaaddaaddaa>dd<aa
'C <a+a+>f<a+a+a+>f<a+a+a+>f<a+a+a+>f<a+
'C >ccgcccgcccgcccgc
'C <a+a+>f<a+>ccgcddadaadd
'C ddaaddaaddaa>dd<aa
'C <a+a+>f<a+a+a+>f<a+a+a+>f<a+a+a+>f<a+
'C >ccgcccgcccgcccgc
'C ddadddadcgcgdadd
'C ddaaddaaddaa>dd<aa
'C <a+a+>f<a+a+a+>f<a+a+a+>f<a+a+a+>f<a+
'C >ccgcccgcccgcccgc
'C ddadddadcgcgdadd

'C d+a+>f+<a+d+a+>f+<a+d+a+>f+<a+d+a+>f+<a+
'C d+a+>f+<a+d+a+>f+<a+d+a+>f+<a+d+a+>f+<a+
'C <b>f+>d+<f+<b>f+>d+<f+<b>f+>d+<f+<b>f+>d+<f+
'C <b>f+>d+<f+<b>f+>d+<f+<b>f+>d+<f+<b>f+>d+<f+
'C c+g+>f<g+c+g+>f<g+c+g+>f<g+c+g+>f<g+
'C c+g+>f<g+c+g+>f<g+c+g+>f<g+c+g+>f<g+
'C d+a+>f+<a+d+a+>f+<a+d+a+>f+<a+d+a+>f+<a+
'C d+a+>f+<a+d+a+>f+<a+d+a+>f+<a+>fd+c+<a+
'C <b>f+>d+<f+<b>f+>d+<f+<b>f+>d+<f+<b>f+>d+<f+
'C <b>f+>d+<f+<b>f+>d+<f+<b>f+>d+<f+<b>f+>d+<f+
'C c+g+>f<g+c+g+>f<g+c+g+>f<g+c+g+>f<g+
'C c+g+>f<g+c+g+>f<g+c+g+>f<g+c+g+>f<g+
'C <bb>f+f+a+a+>d+d+<c+c+g+g+>c+c+ff
'C <d+a+>f+<a+d+a+>f+<a+d+a+>f+<a+d+a+>f+<a+


'G @11 l16
'G r1Lu119
'G o5ddadddadddadddad
'G <a+a+>f<a+a+a+>f<a+>ccgcccgc
'G ddadddadddadddad
'G <a+a+>f<a+a+a+>f<a+>ccgcccgc
'G ddadddadddadddad
'G <a+a+>f<a+a+a+>f<a+>ccgcccgc
'G ddadddadddadddad
'G <a+a+>f<a+a+a+>f<a+>ccgcccgcu123

'G ddaaddaaddaa>dd<aa
'G <a+a+>f<a+a+a+>f<a+a+a+>f<a+a+a+>f<a+
'G >ccgcccgcccgcccgc
'G ddadddadddadddad
'G ddaaddaaddaa>dd<aa
'G <a+a+>f<a+a+a+>f<a+a+a+>f<a+a+a+>f<a+
'G >ccgcccgcccgcccgc
'G <a+a+>f<a+>ccgcddadaadd
'G ddaaddaaddaa>dd<aa
'G <a+a+>f<a+a+a+>f<a+a+a+>f<a+a+a+>f<a+
'G >ccgcccgcccgcccgc
'G ddadddadcgcgdadd
'G ddaaddaaddaa>dd<aa
'G <a+a+>f<a+a+a+>f<a+a+a+>f<a+a+a+>f<a+
'G >ccgcccgcccgcccgc
'G ddadddadcgcgdadd

'G d+a+>f+<a+d+a+>f+<a+d+a+>f+<a+d+a+>f+<a+
'G d+a+>f+<a+d+a+>f+<a+d+a+>f+<a+d+a+>f+<a+
'G <b>f+>d+<f+<b>f+>d+<f+<b>f+>d+<f+<b>f+>d+<f+
'G <b>f+>d+<f+<b>f+>d+<f+<b>f+>d+<f+<b>f+>d+<f+
'G c+g+>f<g+c+g+>f<g+c+g+>f<g+c+g+>f<g+
'G c+g+>f<g+c+g+>f<g+c+g+>f<g+c+g+>f<g+
'G d+a+>f+<a+d+a+>f+<a+d+a+>f+<a+d+a+>f+<a+
'G d+a+>f+<a+d+a+>f+<a+d+a+>f+<a+>fd+c+<a+
'G <b>f+>d+<f+<b>f+>d+<f+<b>f+>d+<f+<b>f+>d+<f+
'G <b>f+>d+<f+<b>f+>d+<f+<b>f+>d+<f+<b>f+>d+<f+
'G c+g+>f<g+c+g+>f<g+c+g+>f<g+c+g+>f<g+
'G c+g+>f<g+c+g+>f<g+c+g+>f<g+c+g+>f<g+
'G <bb>f+f+a+a+>d+d+<c+c+g+g+>c+c+ff
'G <d+a+>f+<a+d+a+>f+<a+d+a+>f+<a+d+a+>f+<a+


'H @3 l8
'H r1L@3u116
'H o4a1
'H f4a4>c4d4
'H <a1
'H f4a4>c4d4
'H <a1
'H f4a4>c4d4
'H <a1
'H f4a4>c4d4@28u111

'H >a4a4a4a4
'H a4a4a4a4
'H a4a4a4a4
'H a4a4a4a4
'H a4a4a4a4
'H a4a4a4a4
'H a4a4a4a4
'H a4a4a4a4@3u116
'H <d2&d4<a>c
'H d2&d<a>ef
'H e2c4d4
'H <a2&a4a>c
'H d2&d4<a>c
'H d2&d<a>ef
'H e2f4g4
'H a2a16a16g16g16f16f16e16e16
'H d+ff+rfd+c+d+&
'H d+2&d+<a+>d+<a+
'H >d+ff+rfd+c+g+&
'H g+2&g+f+fd+
'H d+ff+rfd+c+g+&
'H g+f+ff+fd+c+<a+
'H >d+ff+rfd+c+d+&
'H d+2&d+<a+>d+<a+
'H >d+ff+rfd+c+g+&
'H g+2&g+f+fd+
'H d+ff+rfd+c+g+&
'H g+f+ff+fd+c+<a+
'H d+2f4&ff+&
'H f+1

'I @3 l16
'I r1L@3u116
'I o4a1
'I a4>d4e4f4
'I <a1
'I a4>d4e4f4
'I <a1
'I a4>d4e4f4
'I <a1
'I a4>d4e4f4@29o1[u100du124du108du116d]32@3
'I o5d2&d4<a8>c8
'I d2&d8<a8>e8f8
'I e2c4d4
'I <a2&a4a8>c8
'I d2&d4<a8>c8
'I d2&d8<a8>e8f8
'I e2f4g4
'I a2aaggffee
'I <a+8a+8a+8r8a+8a+8a+8a+8&
'I a+2&a+8f+8f+8f+8
'I <b8b8b8r8b8b8b8b8&
'I b2&b8b8b8b8
'I >c+8c+8c+8r8c+8c+8c+8g+8&
'I g+8g+8g+8g+8g+8g+8g+8g+8
'I <a+8a+8a+8r8a+8a+8a+8a+8&
'I a+2&a+8f+8f+8f+8
'I <b8b8b8r8b8b8b8b8&
'I b2&b8b8b8b8
'I >c+8c+8c+8r8c+8c+8c+8g+8&
'I g+8g+8g+8g+8g+8g+8g+8g+8
'I >a+2a+4&a+8a+8&
'I a+1



'D v14 l16
'D r1LE255,255,4,5,5,0v14
'D o4a1
'D f4a4>c4d4
'D <a1
'D f4a4>c4d4E255,255,2,5,5,0
'D <a1
'D f4a4>c4d4
'D <a1
'D f4a4>c4d4
'D <a8>c8d8r8<a8>c8d8r8
'D <a8>c8d8<a8>f8e8d8c8
'D <g8a8>c8r8<g8a8>c8r8
'D <a8>c8d8<a8>f8e8d8c8
'D <a8>c8d8r8<a8>c8d8r8
'D <a8>c8d8<a8>f8e8d8c8
'D <g8a8f8r8e8r8c8r8
'D d8e8f8g8a8r8a8>c8E255,255,1,5,5,0
'D <a2a2
'D f2f2
'D g2g2
'D a2g2
'D a2a2
'D f2f2
'D g2g2
'D a2g2E255,255,7,50,50,50v15
'D >d+ff+<a+>d+ff+<a+>d+ff+<a+>d+ff+<a+
'D >d+ff+<a+>d+ff+<a+>g+f+ff+fd+c+<a+
'D f+b>ff+<f+b>ff+<f+b>ff+<f+b>ff+
'D <f+b>ff+<f+b>ff+<f+b>ff+<f+b>ff+
'D d+ff+<g+>d+ff+<g+>d+ff+<g+>d+ff+<g+
'D >d+ff+<g+>d+ff+<g+>d+ff+<g+>d+ff+<g+
'D >d+ff+<a+>d+ff+<a+>d+ff+<a+>d+ff+<a+
'D >d+ff+<a+>d+ff+<a+>g+f+ff+fd+c+<a+
'D f+b>ff+<f+b>ff+<f+b>ff+<f+b>ff+
'D <f+b>ff+<f+b>ff+<f+b>ff+<f+b>ff+
'D d+ff+<g+>d+ff+<g+>d+ff+<g+>d+ff+<g+
'D >d+ff+<g+>d+ff+<g+>d+ff+<g+>d+ff+<g+E255,255,2,5,5,0
'D >a+2a+4&a+8a+8&
'D a+1

'E v14l16
'E r1Lv14E255,255,4,5,5,0
'E o4a1
'E a4>d4e4f4
'E <a1
'E a4>d4e4f4E255,255,2,5,5,0
'E <a1
'E a4>d4e4f4
'E <a1
'E a4>d4e4f4
'E <a8>c8d8r8<a8>c8d8r8
'E <a8>c8d8<a8>f8e8d8c8
'E <g8a8>c8r8<g8a8>c8r8
'E <a8>c8d8<a8>f8e8d8c8
'E <a8>c8d8r8<a8>c8d8r8
'E <a8>c8d8<a8>f8e8d8c8
'E <g8a8f8r8e8r8c8r8
'E d8e8f8g8a8r8a8>c8E255,255,1,5,5,0
'E <d2d2
'E <a+2a+2
'E >c2c2
'E d2c2
'E d2d2
'E <a+2a+2
'E >c2c2
'E d2c2E255,255,7,5,5,0v15
'E d+ff+<a+>d+ff+<a+>d+ff+<a+>d+ff+<a+
'E >d+ff+<a+>d+ff+<a+>g+f+ff+fd+c+<a+
'E f+b>ff+<f+b>ff+<f+b>ff+<f+b>ff+
'E <f+b>ff+<f+b>ff+<f+b>ff+<f+b>ff+
'E d+ff+<g+>d+ff+<g+>d+ff+<g+>d+ff+<g+
'E >d+ff+<g+>d+ff+<g+>d+ff+<g+>d+ff+<g+
'E >d+ff+<a+>d+ff+<a+>d+ff+<a+>d+ff+<a+
'E >d+ff+<a+>d+ff+<a+>g+f+ff+fd+c+<a+
'E f+b>ff+<f+b>ff+<f+b>ff+<f+b>ff+
'E <f+b>ff+<f+b>ff+<f+b>ff+<f+b>ff+
'E d+ff+<g+>d+ff+<g+>d+ff+<g+>d+ff+<g+
'E >d+ff+<g+>d+ff+<g+>d+ff+<g+>d+ff+<g+E255,255,1,5,5,0
'E o5d+2f4&f8f+8&
'E f+1


'J V60 v30btsrhc P3bsctrP2h

'J l16
'J R1L
'J [@bR@hR]15@sh4
'J @bhR@bcR@shR@c@s @h@s@c@b @shR@c@s 
'J @bhR@bcR@shR@c@s @h@s@c@b @sh@b@c@s
'J @bhR@bcR@shR@c@s @h@s@c@b @shR@c@s 
'J @bhR@bcR@shR@cst@st @hst@st@cst@st @th@t@sc@s

'J [@bhR@bcR@shR@c@s @h@s@c@b @shR@c@s 
'J @bhR@bcR@shR@c@s @h@s@c@b / @sh@b@c@s]4 @sh@s@sc@s

'J [[@bhR@hR]3@tshR@hR]2
'J [@bhR@cR@shR@c / R]3@b @t@t@t@t@s@s@b@b

'J [@bhR@bcR@shR@c@s @h@s@c@b @shR@c@s 
'J @bhR@bcR@shR@c@s @h@s@c@b / @sh@b@c@s]2 @sh@s@sc@s

'J [@bhR@bcR@shR@c@s @h@s@c@b @shR@c@s 
'J @bhR@bcR@shR@c@s @h@s@c@b @sh@b@c@s]2
'J @bhR@bcR@shR@c@s @h@s@c@b @shR@c@s 
'J @bhR@bcR@shR@cst@st @hst@st@cst@st @th@t@sc@s

'J [@bhR@bcR@shR@c@s @h@s@c@b @shR@c@s 
'J @bhR@bcR@shR@c@s @h@s@c@b / @sh@b@c@s]3 @sh@s@sc@s

'J [@c R4R@h R]2
'J [@bhR@cR@shR@cR]2

'"title:恋色マジック
　　　　　　                                      　　　　　　  
Composition:ZUN
Copy:あぶらあげ
推奨ボリューム
FM・・・-15〜-20
SSG・・・0
Rhythm・・・-5以下
ADPCM・・・0
Marisa（マリッサ）に”魔”の字と日本人名の”理沙”で東方の西洋風魔法使い・・・
魔理沙という名前をよく思いついたなぁとつくづく思います。"


